<svg width="129" height="54" viewBox="0 0 129 54" fill="none" xmlns="http://www.w3.org/2000/svg">
<path d="M32.5286 17.2743H34.1218V35H32.5286V26.8334H21.3512V35H19.7831V17.2743H21.3512V25.3406H32.5286V17.2743ZM38.8045 18.8173C38.5034 18.8173 38.2483 18.7127 38.0393 18.5037C37.8302 18.2946 37.7256 18.0395 37.7256 17.7384C37.7256 17.4457 37.8302 17.199 38.0393 16.9983C38.2567 16.7892 38.5118 16.6847 38.8045 16.6847C39.1139 16.6847 39.3732 16.7892 39.5823 16.9983C39.7997 17.199 39.9084 17.4457 39.9084 17.7384C39.9084 18.0479 39.7997 18.3071 39.5823 18.5162C39.3732 18.7169 39.1139 18.8173 38.8045 18.8173ZM38.0643 35V21.9033H39.5572V35H38.0643ZM49.6717 21.69H50.0606V23.233H49.6717C48.1664 23.233 46.9663 23.6846 46.0714 24.5879C45.1849 25.4911 44.7417 26.7079 44.7417 28.2384V35H43.2488V21.9033H44.7417V24.6506C45.2267 23.7139 45.8916 22.9863 46.7363 22.4678C47.5893 21.9493 48.5678 21.69 49.6717 21.69ZM64.2899 28.4516C64.2899 28.6105 64.2731 28.8238 64.2397 29.0914H52.2093C52.3682 30.5132 52.962 31.6756 53.9906 32.5789C55.0277 33.4737 56.2947 33.9212 57.7917 33.9212C58.8371 33.9212 59.7947 33.6953 60.6644 33.2437C61.5342 32.7838 62.2116 32.1774 62.6967 31.4247L63.7504 32.3029C63.1148 33.2396 62.2702 33.9755 61.2164 34.5108C60.1627 35.046 59.0002 35.3136 57.729 35.3136C55.7051 35.3136 54.0157 34.6571 52.6609 33.3441C51.3144 32.0227 50.6412 30.3835 50.6412 28.4266C50.6412 26.4779 51.2935 24.8513 52.5982 23.5467C53.9028 22.242 55.5295 21.5897 57.4781 21.5897C59.4183 21.5897 61.0366 22.2462 62.3329 23.5592C63.6375 24.8639 64.2899 26.4947 64.2899 28.4516ZM61.0157 24.3119C60.0372 23.4254 58.8496 22.9821 57.453 22.9821C56.0563 22.9821 54.873 23.4254 53.9028 24.3119C52.9327 25.1984 52.3682 26.3441 52.2093 27.7491H62.7218C62.5629 26.3441 61.9942 25.1984 61.0157 24.3119ZM88.8971 21.5897C90.4109 21.5897 91.6235 22.0455 92.5351 22.957C93.4467 23.8603 93.9025 25.0646 93.9025 26.5699V35H92.4097V26.9839C92.4097 25.788 92.05 24.8304 91.3308 24.1112C90.6199 23.3919 89.6707 23.0323 88.4832 23.0323C87.2454 23.0323 86.2502 23.4003 85.4975 24.1363C84.7448 24.8639 84.3685 25.8298 84.3685 27.0341V35H82.8882V26.9839C82.8882 25.7963 82.5244 24.8429 81.7968 24.1237C81.0776 23.3961 80.1284 23.0323 78.9492 23.0323C77.7114 23.0323 76.712 23.4003 75.951 24.1363C75.1983 24.8639 74.8219 25.8298 74.8219 27.0341V35H73.3291V21.9033H74.8219V24.061C75.2903 23.2665 75.9133 22.656 76.6911 22.2295C77.4689 21.8029 78.3679 21.5897 79.3882 21.5897C80.4838 21.5897 81.433 21.8447 82.2359 22.3549C83.0471 22.8567 83.6325 23.5592 83.9921 24.4624C84.4354 23.5508 85.0794 22.8441 85.924 22.3424C86.7687 21.8406 87.7597 21.5897 88.8971 21.5897ZM110.227 28.4516C110.227 28.6105 110.21 28.8238 110.177 29.0914H98.1461C98.305 30.5132 98.8988 31.6756 99.9275 32.5789C100.965 33.4737 102.232 33.9212 103.729 33.9212C104.774 33.9212 105.732 33.6953 106.601 33.2437C107.471 32.7838 108.148 32.1774 108.634 31.4247L109.687 32.3029C109.052 33.2396 108.207 33.9755 107.153 34.5108C106.099 35.046 104.937 35.3136 103.666 35.3136C101.642 35.3136 99.9526 34.6571 98.5977 33.3441C97.2513 32.0227 96.578 30.3835 96.578 28.4266C96.578 26.4779 97.2304 24.8513 98.535 23.5467C99.8397 22.242 101.466 21.5897 103.415 21.5897C105.355 21.5897 106.973 22.2462 108.27 23.5592C109.574 24.8639 110.227 26.4947 110.227 28.4516ZM106.953 24.3119C105.974 23.4254 104.786 22.9821 103.39 22.9821C101.993 22.9821 100.81 23.4254 99.8397 24.3119C98.8695 25.1984 98.305 26.3441 98.1461 27.7491H108.659C108.5 26.3441 107.931 25.1984 106.953 24.3119Z" fill="white"/>
</svg>
