<svg width="151" height="66" viewBox="0 0 151 66" fill="none" xmlns="http://www.w3.org/2000/svg">
<path d="M46.4365 39.2441C45.4079 39.2441 44.4085 39.0488 43.4385 38.6582C42.4684 38.2611 41.6611 37.7272 41.0166 37.0566L41.9932 35.6797C42.527 36.2526 43.1911 36.7181 43.9854 37.0762C44.7796 37.4277 45.5967 37.6035 46.4365 37.6035C47.3545 37.6035 48.126 37.3919 48.751 36.9688C49.376 36.5391 49.6885 35.9954 49.6885 35.3379C49.6885 35.1556 49.6592 34.9831 49.6006 34.8203C49.542 34.651 49.4736 34.5046 49.3955 34.3809C49.3174 34.2507 49.2002 34.127 49.0439 34.0098C48.8877 33.8861 48.751 33.7852 48.6338 33.707C48.5231 33.6289 48.3571 33.5475 48.1357 33.4629C47.9144 33.3717 47.7451 33.3066 47.6279 33.2676C47.5173 33.222 47.335 33.1667 47.0811 33.1016C46.8337 33.0299 46.6709 32.9844 46.5928 32.9648C46.5146 32.9453 46.3551 32.9095 46.1143 32.8574C45.6195 32.7533 45.1572 32.6296 44.7275 32.4863C44.3044 32.3366 43.8844 32.1478 43.4678 31.9199C43.0576 31.6855 42.7061 31.4284 42.4131 31.1484C42.1266 30.862 41.8955 30.5169 41.7197 30.1133C41.5439 29.7096 41.4561 29.2734 41.4561 28.8047C41.4561 27.6589 41.9118 26.7311 42.8232 26.0215C43.7412 25.3118 44.9229 24.957 46.3682 24.957C47.3187 24.957 48.1878 25.1133 48.9756 25.4258C49.7699 25.7383 50.4144 26.1615 50.9092 26.6953L50.0303 28.0625C49.6527 27.6458 49.1286 27.2975 48.458 27.0176C47.7939 26.7376 47.0908 26.5977 46.3486 26.5977C45.4762 26.5977 44.7536 26.7995 44.1807 27.2031C43.6143 27.6003 43.3311 28.1113 43.3311 28.7363C43.3311 29.8691 44.4313 30.6634 46.6318 31.1191C46.8727 31.1647 47.1038 31.2168 47.3252 31.2754C47.5531 31.334 47.8395 31.4219 48.1846 31.5391C48.5361 31.6562 48.8551 31.7865 49.1416 31.9297C49.4346 32.0664 49.734 32.2454 50.04 32.4668C50.3525 32.6882 50.6162 32.929 50.8311 33.1895C51.0459 33.4434 51.2217 33.7493 51.3584 34.1074C51.5016 34.4655 51.5732 34.8496 51.5732 35.2598C51.5732 36.4251 51.0817 37.3822 50.0986 38.1309C49.1221 38.873 47.9014 39.2441 46.4365 39.2441ZM63.3924 33.9023C63.3924 34 63.3761 34.2539 63.3436 34.6641H54.5643C54.74 35.5625 55.1665 36.2884 55.8436 36.8418C56.5271 37.3887 57.3605 37.6621 58.3436 37.6621C59.0727 37.6621 59.7433 37.5091 60.3553 37.2031C60.9673 36.8906 61.4458 36.4902 61.7908 36.002L62.9725 37.0176C62.4581 37.7077 61.7908 38.2513 60.9705 38.6484C60.1567 39.0456 59.2615 39.2441 58.285 39.2441C56.6899 39.2441 55.3618 38.7298 54.3006 37.7012C53.2394 36.6725 52.7088 35.3932 52.7088 33.8633C52.7088 32.8737 52.9399 31.9753 53.4021 31.168C53.8709 30.3542 54.5154 29.7161 55.3357 29.2539C56.1561 28.7917 57.0675 28.5605 58.0701 28.5605C59.0662 28.5605 59.9712 28.7917 60.785 29.2539C61.5988 29.7161 62.2368 30.3574 62.699 31.1777C63.1613 31.9915 63.3924 32.8997 63.3924 33.9023ZM58.0506 30.1426C57.1652 30.1426 56.4002 30.4193 55.7557 30.9727C55.1111 31.5195 54.7075 32.2292 54.5447 33.1016H61.5662C61.4035 32.2161 60.9998 31.5033 60.3553 30.9629C59.7107 30.416 58.9425 30.1426 58.0506 30.1426ZM70.4947 28.6387H70.8365V30.416H70.4947C69.4205 30.416 68.5709 30.7318 67.9459 31.3633C67.3274 31.9883 67.0182 32.8346 67.0182 33.9023V39H65.2994V28.8047H67.0182V30.5625C67.8189 29.2799 68.9778 28.6387 70.4947 28.6387ZM80.3705 28.8047H82.2943L77.8119 39H75.9857L71.5131 28.8047H73.4857L76.933 36.9395L80.3705 28.8047ZM84.6018 26.7637C84.2697 26.7637 83.993 26.6562 83.7717 26.4414C83.5503 26.2201 83.4396 25.9466 83.4396 25.6211C83.4396 25.2891 83.5503 25.0156 83.7717 24.8008C83.993 24.5859 84.2697 24.4785 84.6018 24.4785C84.9273 24.4785 85.1975 24.5859 85.4123 24.8008C85.6271 25.0156 85.7346 25.2891 85.7346 25.6211C85.7346 25.9466 85.6239 26.2201 85.4025 26.4414C85.1877 26.6562 84.9208 26.7637 84.6018 26.7637ZM83.7424 39V28.8047H85.4611V39H83.7424ZM92.8467 39.2441C91.8311 39.2441 90.9066 39.013 90.0732 38.5508C89.2399 38.082 88.5856 37.4408 88.1104 36.627C87.6416 35.8066 87.4072 34.8984 87.4072 33.9023C87.4072 32.9062 87.6416 32.0013 88.1104 31.1875C88.5856 30.3672 89.2399 29.7259 90.0732 29.2637C90.9066 28.7949 91.8311 28.5605 92.8467 28.5605C93.8493 28.5605 94.7607 28.7917 95.5811 29.2539C96.4014 29.7096 97.0426 30.3314 97.5049 31.1191L96.0107 32.0176C95.6982 31.4642 95.262 31.028 94.7021 30.709C94.1423 30.3835 93.5238 30.2207 92.8467 30.2207C91.7985 30.2207 90.9261 30.5723 90.2295 31.2754C89.5329 31.9785 89.1846 32.8542 89.1846 33.9023C89.1846 34.9505 89.5329 35.8262 90.2295 36.5293C90.9261 37.2324 91.7985 37.584 92.8467 37.584C93.5238 37.584 94.1423 37.4212 94.7021 37.0957C95.262 36.7702 95.6982 36.3307 96.0107 35.7773L97.5049 36.6758C97.0426 37.4701 96.3981 38.0983 95.5713 38.5605C94.751 39.0163 93.8428 39.2441 92.8467 39.2441ZM109.217 33.9023C109.217 34 109.2 34.2539 109.168 34.6641H100.388C100.564 35.5625 100.991 36.2884 101.668 36.8418C102.351 37.3887 103.185 37.6621 104.168 37.6621C104.897 37.6621 105.568 37.5091 106.179 37.2031C106.791 36.8906 107.27 36.4902 107.615 36.002L108.797 37.0176C108.282 37.7077 107.615 38.2513 106.795 38.6484C105.981 39.0456 105.086 39.2441 104.109 39.2441C102.514 39.2441 101.186 38.7298 100.125 37.7012C99.0636 36.6725 98.533 35.3932 98.533 33.8633C98.533 32.8737 98.7641 31.9753 99.2264 31.168C99.6951 30.3542 100.34 29.7161 101.16 29.2539C101.98 28.7917 102.892 28.5605 103.894 28.5605C104.89 28.5605 105.795 28.7917 106.609 29.2539C107.423 29.7161 108.061 30.3574 108.523 31.1777C108.985 31.9915 109.217 32.8997 109.217 33.9023ZM103.875 30.1426C102.989 30.1426 102.224 30.4193 101.58 30.9727C100.935 31.5195 100.532 32.2292 100.369 33.1016H107.39C107.228 32.2161 106.824 31.5033 106.179 30.9629C105.535 30.416 104.767 30.1426 103.875 30.1426Z" fill="white"/>
</svg>
