<svg width="208" height="62" viewBox="0 0 208 62" fill="none" xmlns="http://www.w3.org/2000/svg">
<rect x="0.25" y="0.25" width="207.5" height="61.5" rx="30.75" fill="#FD853A"/>
<rect x="0.25" y="0.25" width="207.5" height="61.5" rx="30.75" stroke="#D0D5DD" stroke-width="0.5"/>
<path d="M41.4587 21.2743C42.5627 21.2743 43.5663 21.5252 44.4695 22.027C45.3811 22.5204 46.0961 23.2104 46.6146 24.0968C47.1331 24.9833 47.3924 25.9702 47.3924 27.0574C47.3924 28.6966 46.8237 30.064 45.6863 31.1595C44.5489 32.2551 43.1397 32.8029 41.4587 32.8029H36.9803V39H33.9319V21.2743H41.4587ZM41.4086 29.9302C42.2198 29.9302 42.8972 29.6584 43.4408 29.1147C43.9844 28.5628 44.2562 27.877 44.2562 27.0574C44.2562 26.2211 43.9844 25.5269 43.4408 24.975C42.8972 24.423 42.2198 24.147 41.4086 24.147H36.9803V29.9302H41.4086ZM55.0357 39.3136C53.0369 39.3136 51.3684 38.6571 50.0303 37.3441C48.6922 36.0311 48.0231 34.4003 48.0231 32.4516C48.0231 30.503 48.6922 28.8722 50.0303 27.5592C51.3684 26.2462 53.0369 25.5897 55.0357 25.5897C56.3403 25.5897 57.5279 25.8907 58.5984 26.4929C59.6772 27.0867 60.5219 27.9104 61.1324 28.9642C61.7429 30.0096 62.0482 31.1721 62.0482 32.4516C62.0482 33.7312 61.7429 34.8979 61.1324 35.9516C60.5219 36.997 59.6772 37.8208 58.5984 38.4229C57.5279 39.0167 56.3403 39.3136 55.0357 39.3136ZM52.1378 35.362C52.9156 36.1398 53.8815 36.5287 55.0357 36.5287C56.1898 36.5287 57.1474 36.1398 57.9084 35.362C58.6778 34.5759 59.0625 33.6058 59.0625 32.4516C59.0625 31.2892 58.6778 30.319 57.9084 29.5413C57.1474 28.7551 56.1898 28.3621 55.0357 28.3621C53.8815 28.3621 52.9156 28.7551 52.1378 29.5413C51.36 30.3274 50.9712 31.2975 50.9712 32.4516C50.9712 33.6058 51.36 34.5759 52.1378 35.362ZM71.2219 25.69H71.7111V28.6506H71.2219C69.9507 28.6506 68.9513 29.0102 68.2237 29.7294C67.5045 30.4403 67.1448 31.4063 67.1448 32.6273V39H64.2596V25.9033H67.1448V27.8226C68.1902 26.4009 69.5493 25.69 71.2219 25.69ZM81.5497 28.5126H77.849V34.7097C77.849 35.3118 78.0121 35.7676 78.3383 36.0771C78.6728 36.3781 79.1453 36.5287 79.7558 36.5287C80.3329 36.5287 80.9308 36.3781 81.5497 36.0771V38.7742C80.8388 39.1338 80.0402 39.3136 79.1537 39.3136C77.7737 39.3136 76.7325 38.9498 76.03 38.2222C75.3275 37.4946 74.9763 36.4785 74.9763 35.1739V28.5126H72.7559V25.9033H74.9763V22.5037H77.849V25.9033H81.5497V28.5126ZM89.6822 22.8424C88.3943 22.8424 87.7503 23.4403 87.7503 24.6363V25.9033H91.2378V28.5126H87.7503V39H84.8776V28.5126H82.6572V25.9033H84.8776V24.4606C84.8776 23.1142 85.2288 22.0688 85.9313 21.3245C86.6338 20.5718 87.6751 20.1954 89.055 20.1954C89.9248 20.1954 90.7151 20.3752 91.4259 20.7349V23.2814C90.9074 22.9887 90.3262 22.8424 89.6822 22.8424ZM98.6803 39.3136C96.6815 39.3136 95.0131 38.6571 93.675 37.3441C92.3369 36.0311 91.6678 34.4003 91.6678 32.4516C91.6678 30.503 92.3369 28.8722 93.675 27.5592C95.0131 26.2462 96.6815 25.5897 98.6803 25.5897C99.985 25.5897 101.173 25.8907 102.243 26.4929C103.322 27.0867 104.167 27.9104 104.777 28.9642C105.388 30.0096 105.693 31.1721 105.693 32.4516C105.693 33.7312 105.388 34.8979 104.777 35.9516C104.167 36.997 103.322 37.8208 102.243 38.4229C101.173 39.0167 99.985 39.3136 98.6803 39.3136ZM95.7825 35.362C96.5602 36.1398 97.5262 36.5287 98.6803 36.5287C99.8344 36.5287 100.792 36.1398 101.553 35.362C102.322 34.5759 102.707 33.6058 102.707 32.4516C102.707 31.2892 102.322 30.319 101.553 29.5413C100.792 28.7551 99.8344 28.3621 98.6803 28.3621C97.5262 28.3621 96.5602 28.7551 95.7825 29.5413C95.0047 30.3274 94.6158 31.2975 94.6158 32.4516C94.6158 33.6058 95.0047 34.5759 95.7825 35.362ZM107.904 39V20.4965H110.79V39H107.904ZM115.259 23.6829C114.74 23.6829 114.306 23.5072 113.954 23.156C113.603 22.8047 113.427 22.374 113.427 21.8639C113.427 21.337 113.603 20.9021 113.954 20.5592C114.306 20.2163 114.74 20.0449 115.259 20.0449C115.786 20.0449 116.225 20.2163 116.576 20.5592C116.927 20.9021 117.103 21.337 117.103 21.8639C117.103 22.3824 116.927 22.8173 116.576 23.1685C116.225 23.5114 115.786 23.6829 115.259 23.6829ZM113.816 39V25.9033H116.702V39H113.816ZM125.951 39.3136C123.952 39.3136 122.283 38.6571 120.945 37.3441C119.607 36.0311 118.938 34.4003 118.938 32.4516C118.938 30.503 119.607 28.8722 120.945 27.5592C122.283 26.2462 123.952 25.5897 125.951 25.5897C127.255 25.5897 128.443 25.8907 129.513 26.4929C130.592 27.0867 131.437 27.9104 132.047 28.9642C132.658 30.0096 132.963 31.1721 132.963 32.4516C132.963 33.7312 132.658 34.8979 132.047 35.9516C131.437 36.997 130.592 37.8208 129.513 38.4229C128.443 39.0167 127.255 39.3136 125.951 39.3136ZM123.053 35.362C123.831 36.1398 124.796 36.5287 125.951 36.5287C127.105 36.5287 128.062 36.1398 128.823 35.362C129.593 34.5759 129.977 33.6058 129.977 32.4516C129.977 31.2892 129.593 30.319 128.823 29.5413C128.062 28.7551 127.105 28.3621 125.951 28.3621C124.796 28.3621 123.831 28.7551 123.053 29.5413C122.275 30.3274 121.886 31.2975 121.886 32.4516C121.886 33.6058 122.275 34.5759 123.053 35.362Z" fill="white"/>
<path d="M146.25 39.75L163.75 22.25" stroke="white" stroke-width="2" stroke-linecap="round" stroke-linejoin="round"/>
<path d="M146.25 22.25H163.75V39.75" stroke="white" stroke-width="2" stroke-linecap="round" stroke-linejoin="round"/>
</svg>
