<svg width="148" height="66" viewBox="0 0 148 66" fill="none" xmlns="http://www.w3.org/2000/svg">
<path d="M48.1377 25.2012C49.4007 25.2012 50.4521 25.6146 51.292 26.4414C52.1318 27.2682 52.5518 28.3001 52.5518 29.5371C52.5518 30.7676 52.1286 31.7962 51.2822 32.623C50.4424 33.4499 49.3942 33.8633 48.1377 33.8633H44.29V39H42.4541V25.2012H48.1377ZM48.0889 32.1445C48.8311 32.1445 49.4463 31.8971 49.9346 31.4023C50.4294 30.9076 50.6768 30.2858 50.6768 29.5371C50.6768 28.7884 50.4294 28.1667 49.9346 27.6719C49.4463 27.1706 48.8311 26.9199 48.0889 26.9199H44.29V32.1445H48.0889ZM59.5564 28.6387H59.8982V30.416H59.5564C58.4822 30.416 57.6326 30.7318 57.0076 31.3633C56.3891 31.9883 56.0799 32.8346 56.0799 33.9023V39H54.3611V28.8047H56.0799V30.5625C56.8807 29.2799 58.0395 28.6387 59.5564 28.6387ZM65.7701 39.2441C64.7545 39.2441 63.83 39.013 62.9967 38.5508C62.1633 38.082 61.509 37.4408 61.0338 36.627C60.565 35.8066 60.3307 34.8984 60.3307 33.9023C60.3307 32.9062 60.565 32.0013 61.0338 31.1875C61.509 30.3672 62.1633 29.7259 62.9967 29.2637C63.83 28.7949 64.7545 28.5605 65.7701 28.5605C67.3066 28.5605 68.5924 29.0716 69.6275 30.0938C70.6692 31.1159 71.19 32.3854 71.19 33.9023C71.19 35.4193 70.6692 36.6888 69.6275 37.7109C68.5924 38.7331 67.3066 39.2441 65.7701 39.2441ZM65.7701 37.584C66.8118 37.584 67.6777 37.2324 68.3678 36.5293C69.0644 35.8262 69.4127 34.9505 69.4127 33.9023C69.4127 32.8542 69.0644 31.9785 68.3678 31.2754C67.6777 30.5723 66.8118 30.2207 65.7701 30.2207C64.7219 30.2207 63.8495 30.5723 63.1529 31.2754C62.4563 31.9785 62.108 32.8542 62.108 33.9023C62.108 34.9505 62.4563 35.8262 63.1529 36.5293C63.8495 37.2324 64.7219 37.584 65.7701 37.584ZM74.1127 26.7637C73.7872 26.7637 73.5137 26.6562 73.2924 26.4414C73.0775 26.2201 72.9701 25.9466 72.9701 25.6211C72.9701 25.2891 73.0775 25.0156 73.2924 24.8008C73.5137 24.5859 73.7872 24.4785 74.1127 24.4785C74.4447 24.4785 74.7214 24.5859 74.9428 24.8008C75.1641 25.0156 75.2748 25.2891 75.2748 25.6211C75.2748 25.9466 75.1641 26.2201 74.9428 26.4414C74.7214 26.6562 74.4447 26.7637 74.1127 26.7637ZM72.2084 43.043C71.7592 43.043 71.3327 42.9551 70.9291 42.7793V41.2363C71.2416 41.3861 71.5704 41.4609 71.9154 41.4609C72.8074 41.4609 73.2533 41.002 73.2533 40.084V28.8047H74.9721V40.2598C74.9721 41.1452 74.7344 41.8288 74.2592 42.3105C73.7839 42.7988 73.1003 43.043 72.2084 43.043ZM87.6213 33.9023C87.6213 34 87.605 34.2539 87.5725 34.6641H78.7932C78.9689 35.5625 79.3954 36.2884 80.0725 36.8418C80.7561 37.3887 81.5894 37.6621 82.5725 37.6621C83.3016 37.6621 83.9722 37.5091 84.5842 37.2031C85.1962 36.8906 85.6747 36.4902 86.0197 36.002L87.2014 37.0176C86.687 37.7077 86.0197 38.2513 85.1994 38.6484C84.3856 39.0456 83.4904 39.2441 82.5139 39.2441C80.9188 39.2441 79.5907 38.7298 78.5295 37.7012C77.4683 36.6725 76.9377 35.3932 76.9377 33.8633C76.9377 32.8737 77.1688 31.9753 77.6311 31.168C78.0998 30.3542 78.7443 29.7161 79.5646 29.2539C80.385 28.7917 81.2964 28.5605 82.299 28.5605C83.2951 28.5605 84.2001 28.7917 85.0139 29.2539C85.8277 29.7161 86.4657 30.3574 86.9279 31.1777C87.3902 31.9915 87.6213 32.8997 87.6213 33.9023ZM82.2795 30.1426C81.3941 30.1426 80.6291 30.4193 79.9846 30.9727C79.34 31.5195 78.9364 32.2292 78.7736 33.1016H85.7951C85.6324 32.2161 85.2287 31.5033 84.5842 30.9629C83.9396 30.416 83.1714 30.1426 82.2795 30.1426ZM94.3037 39.2441C93.2881 39.2441 92.3636 39.013 91.5303 38.5508C90.6969 38.082 90.0426 37.4408 89.5674 36.627C89.0986 35.8066 88.8643 34.8984 88.8643 33.9023C88.8643 32.9062 89.0986 32.0013 89.5674 31.1875C90.0426 30.3672 90.6969 29.7259 91.5303 29.2637C92.3636 28.7949 93.2881 28.5605 94.3037 28.5605C95.3063 28.5605 96.2178 28.7917 97.0381 29.2539C97.8584 29.7096 98.4997 30.3314 98.9619 31.1191L97.4678 32.0176C97.1553 31.4642 96.7191 31.028 96.1592 30.709C95.5993 30.3835 94.9808 30.2207 94.3037 30.2207C93.2555 30.2207 92.3831 30.5723 91.6865 31.2754C90.9899 31.9785 90.6416 32.8542 90.6416 33.9023C90.6416 34.9505 90.9899 35.8262 91.6865 36.5293C92.3831 37.2324 93.2555 37.584 94.3037 37.584C94.9808 37.584 95.5993 37.4212 96.1592 37.0957C96.7191 36.7702 97.1553 36.3307 97.4678 35.7773L98.9619 36.6758C98.4997 37.4701 97.8551 38.0983 97.0283 38.5605C96.208 39.0163 95.2998 39.2441 94.3037 39.2441ZM106.513 30.3574H103.447V36.002C103.447 37.0566 103.994 37.584 105.088 37.584C105.563 37.584 106.038 37.457 106.513 37.2031V38.8242C105.999 39.1042 105.403 39.2441 104.726 39.2441C103.743 39.2441 102.998 38.987 102.49 38.4727C101.982 37.9583 101.728 37.2259 101.728 36.2754V30.3574H99.8924V28.8047H101.728V26.0605H103.447V28.8047H106.513V30.3574Z" fill="white"/>
</svg>
