<svg width="136" height="66" viewBox="0 0 136 66" fill="none" xmlns="http://www.w3.org/2000/svg">
<rect width="136" height="66" rx="33" fill="#FD853A"/>
<path d="M49.9609 25.2012H53.0566V39H49.9609V33.5215H44.4238V39H41.3184V25.2012H44.4238V30.6016H49.9609V25.2012ZM60.1395 39.2441C58.5704 39.2441 57.2586 38.7331 56.2039 37.7109C55.1557 36.6888 54.6316 35.4193 54.6316 33.9023C54.6316 32.3854 55.1557 31.1159 56.2039 30.0938C57.2586 29.0716 58.5704 28.5605 60.1395 28.5605C61.1746 28.5605 62.1121 28.7949 62.952 29.2637C63.7918 29.7259 64.4493 30.3672 64.9246 31.1875C65.3999 32.0013 65.6375 32.9062 65.6375 33.9023C65.6375 34.8984 65.3999 35.8066 64.9246 36.627C64.4493 37.4408 63.7918 38.082 62.952 38.5508C62.1121 39.013 61.1746 39.2441 60.1395 39.2441ZM58.3523 35.6992C58.8276 36.181 59.4233 36.4219 60.1395 36.4219C60.8556 36.4219 61.4513 36.181 61.9266 35.6992C62.4018 35.2174 62.6395 34.6185 62.6395 33.9023C62.6395 33.1862 62.4018 32.5872 61.9266 32.1055C61.4513 31.6237 60.8556 31.3828 60.1395 31.3828C59.4233 31.3828 58.8276 31.6237 58.3523 32.1055C57.8771 32.5872 57.6395 33.1862 57.6395 33.9023C57.6395 34.6185 57.8771 35.2174 58.3523 35.6992ZM79.4 28.5605C80.5458 28.5605 81.4605 28.9056 82.1441 29.5957C82.8342 30.2858 83.1793 31.2005 83.1793 32.3398V39H80.2594V33.2188C80.2594 32.6654 80.0966 32.2227 79.7711 31.8906C79.4521 31.5521 79.0224 31.3828 78.482 31.3828C77.9221 31.3828 77.4664 31.5553 77.1148 31.9004C76.7633 32.2454 76.5875 32.6979 76.5875 33.2578V39H73.6676V33.2188C73.6676 32.6654 73.5048 32.2227 73.1793 31.8906C72.8538 31.5521 72.4208 31.3828 71.8805 31.3828C71.3206 31.3828 70.8648 31.5553 70.5133 31.9004C70.1617 32.2454 69.9859 32.6979 69.9859 33.2578V39H67.066V28.8047H69.9859V29.7812C70.7411 28.9674 71.7079 28.5605 72.8863 28.5605C73.5699 28.5605 74.1786 28.7005 74.7125 28.9805C75.2464 29.2539 75.676 29.6413 76.0016 30.1426C76.8349 29.0879 77.9677 28.5605 79.4 28.5605ZM95.223 33.9414C95.223 34.293 95.2035 34.599 95.1645 34.8594H87.5668C87.7491 35.4323 88.0714 35.8815 88.5336 36.207C88.9958 36.5326 89.546 36.6953 90.184 36.6953C90.7309 36.6953 91.2289 36.5879 91.6781 36.373C92.1273 36.1582 92.4822 35.888 92.7426 35.5625L94.7055 37.2617C94.1521 37.8867 93.4783 38.375 92.684 38.7266C91.8897 39.0716 91.0303 39.2441 90.1059 39.2441C88.4848 39.2441 87.1306 38.7298 86.0434 37.7012C84.9626 36.666 84.4223 35.3802 84.4223 33.8438C84.4223 32.8607 84.6566 31.9655 85.1254 31.1582C85.6006 30.3509 86.2549 29.7161 87.0883 29.2539C87.9216 28.7917 88.8461 28.5605 89.8617 28.5605C91.3917 28.5605 92.6677 29.0716 93.6898 30.0938C94.712 31.1159 95.223 32.3984 95.223 33.9414ZM89.8227 31.0801C89.2758 31.0801 88.7973 31.2461 88.3871 31.5781C87.977 31.9036 87.697 32.3496 87.5473 32.916H92.1273C91.9646 32.3431 91.6781 31.8939 91.268 31.5684C90.8578 31.2428 90.376 31.0801 89.8227 31.0801Z" fill="white"/>
</svg>
