<svg width="158" height="66" viewBox="0 0 158 66" fill="none" xmlns="http://www.w3.org/2000/svg">
<path d="M48.0957 39.2441C47.0801 39.2441 46.1263 39.0618 45.2344 38.6973C44.3424 38.3262 43.5775 37.8249 42.9395 37.1934C42.3014 36.5618 41.7969 35.8066 41.4258 34.9277C41.0612 34.0423 40.8789 33.0983 40.8789 32.0957C40.8789 30.7611 41.1914 29.5501 41.8164 28.4629C42.4414 27.3691 43.304 26.513 44.4043 25.8945C45.5111 25.2695 46.7415 24.957 48.0957 24.957C49.3522 24.957 50.5078 25.237 51.5625 25.7969C52.6172 26.3503 53.4701 27.1055 54.1211 28.0625L52.5391 29.0391C52.0638 28.3164 51.4388 27.75 50.6641 27.3398C49.8893 26.9297 49.0332 26.7246 48.0957 26.7246C47.347 26.7246 46.6406 26.8613 45.9766 27.1348C45.319 27.4082 44.7559 27.7826 44.2871 28.2578C43.8184 28.7331 43.4473 29.3027 43.1738 29.9668C42.9004 30.6309 42.7637 31.3405 42.7637 32.0957C42.7637 33.0983 42.9948 34.013 43.457 34.8398C43.9193 35.6602 44.5573 36.3047 45.3711 36.7734C46.1914 37.2422 47.0996 37.4766 48.0957 37.4766C49.0332 37.4766 49.8893 37.2715 50.6641 36.8613C51.4388 36.4512 52.0638 35.8848 52.5391 35.1621L54.1211 36.1387C53.4701 37.0957 52.6172 37.8542 51.5625 38.4141C50.5078 38.9674 49.3522 39.2441 48.0957 39.2441ZM60.5887 39.2441C59.573 39.2441 58.6486 39.013 57.8152 38.5508C56.9819 38.082 56.3276 37.4408 55.8523 36.627C55.3836 35.8066 55.1492 34.8984 55.1492 33.9023C55.1492 32.9062 55.3836 32.0013 55.8523 31.1875C56.3276 30.3672 56.9819 29.7259 57.8152 29.2637C58.6486 28.7949 59.573 28.5605 60.5887 28.5605C62.1251 28.5605 63.4109 29.0716 64.4461 30.0938C65.4878 31.1159 66.0086 32.3854 66.0086 33.9023C66.0086 35.4193 65.4878 36.6888 64.4461 37.7109C63.4109 38.7331 62.1251 39.2441 60.5887 39.2441ZM60.5887 37.584C61.6303 37.584 62.4962 37.2324 63.1863 36.5293C63.8829 35.8262 64.2312 34.9505 64.2312 33.9023C64.2312 32.8542 63.8829 31.9785 63.1863 31.2754C62.4962 30.5723 61.6303 30.2207 60.5887 30.2207C59.5405 30.2207 58.6681 30.5723 57.9715 31.2754C57.2749 31.9785 56.9266 32.8542 56.9266 33.9023C56.9266 34.9505 57.2749 35.8262 57.9715 36.5293C58.6681 37.2324 59.5405 37.584 60.5887 37.584ZM73.3648 28.5605C74.6083 28.5605 75.6077 28.9382 76.3629 29.6934C77.1246 30.4486 77.5055 31.4512 77.5055 32.7012V39H75.7867V33.2383C75.7867 32.3268 75.5165 31.5977 74.9762 31.0508C74.4358 30.4974 73.7132 30.2207 72.8082 30.2207C71.8642 30.2207 71.109 30.5007 70.5426 31.0605C69.9762 31.6204 69.693 32.3594 69.693 33.2773V39H67.9742V28.8047H69.693V30.3574C70.5198 29.1595 71.7437 28.5605 73.3648 28.5605ZM85.3109 30.3574H82.2445V36.002C82.2445 37.0566 82.7914 37.584 83.8852 37.584C84.3604 37.584 84.8357 37.457 85.3109 37.2031V38.8242C84.7966 39.1042 84.2009 39.2441 83.5238 39.2441C82.5408 39.2441 81.7953 38.987 81.2875 38.4727C80.7797 37.9583 80.5258 37.2259 80.5258 36.2754V30.3574H78.6898V28.8047H80.5258V26.0605H82.2445V28.8047H85.3109V30.3574ZM95.2453 28.8047H96.9641V39H95.2453V37.1641C94.8091 37.8151 94.246 38.3262 93.5559 38.6973C92.8723 39.0618 92.1138 39.2441 91.2805 39.2441C90.3234 39.2441 89.4543 39.013 88.673 38.5508C87.8918 38.082 87.2798 37.4408 86.8371 36.627C86.4009 35.8066 86.1828 34.8984 86.1828 33.9023C86.1828 32.9062 86.4009 32.0013 86.8371 31.1875C87.2798 30.3672 87.8918 29.7259 88.673 29.2637C89.4543 28.7949 90.3234 28.5605 91.2805 28.5605C92.1138 28.5605 92.8723 28.7461 93.5559 29.1172C94.246 29.4818 94.8091 29.9896 95.2453 30.6406V28.8047ZM91.6027 37.584C92.6444 37.584 93.5103 37.2324 94.2004 36.5293C94.897 35.8262 95.2453 34.9505 95.2453 33.9023C95.2453 32.8542 94.897 31.9785 94.2004 31.2754C93.5103 30.5723 92.6444 30.2207 91.6027 30.2207C90.5546 30.2207 89.6822 30.5723 88.9855 31.2754C88.2889 31.9785 87.9406 32.8542 87.9406 33.9023C87.9406 34.9505 88.2889 35.8262 88.9855 36.5293C89.6822 37.2324 90.5546 37.584 91.6027 37.584ZM104.369 39.2441C103.354 39.2441 102.429 39.013 101.596 38.5508C100.762 38.082 100.108 37.4408 99.6328 36.627C99.1641 35.8066 98.9297 34.8984 98.9297 33.9023C98.9297 32.9062 99.1641 32.0013 99.6328 31.1875C100.108 30.3672 100.762 29.7259 101.596 29.2637C102.429 28.7949 103.354 28.5605 104.369 28.5605C105.372 28.5605 106.283 28.7917 107.104 29.2539C107.924 29.7096 108.565 30.3314 109.027 31.1191L107.533 32.0176C107.221 31.4642 106.785 31.028 106.225 30.709C105.665 30.3835 105.046 30.2207 104.369 30.2207C103.321 30.2207 102.449 30.5723 101.752 31.2754C101.055 31.9785 100.707 32.8542 100.707 33.9023C100.707 34.9505 101.055 35.8262 101.752 36.5293C102.449 37.2324 103.321 37.584 104.369 37.584C105.046 37.584 105.665 37.4212 106.225 37.0957C106.785 36.7702 107.221 36.3307 107.533 35.7773L109.027 36.6758C108.565 37.4701 107.921 38.0983 107.094 38.5605C106.273 39.0163 105.365 39.2441 104.369 39.2441ZM116.579 30.3574H113.512V36.002C113.512 37.0566 114.059 37.584 115.153 37.584C115.628 37.584 116.104 37.457 116.579 37.2031V38.8242C116.065 39.1042 115.469 39.2441 114.792 39.2441C113.809 39.2441 113.063 38.987 112.555 38.4727C112.048 37.9583 111.794 37.2259 111.794 36.2754V30.3574H109.958V28.8047H111.794V26.0605H113.512V28.8047H116.579V30.3574Z" fill="white"/>
</svg>
