<svg width="308" height="86" viewBox="0 0 308 86" fill="none" xmlns="http://www.w3.org/2000/svg">
<rect x="84.7461" y="20" width="46" height="46" rx="23" fill="#FD853A"/>
<path d="M119.94 46.5953C118.848 47.7882 117.506 48.526 115.883 48.5885C112.818 48.7063 110.446 46.9061 110.152 44.6538C109.567 40.1703 112.486 37.4112 115.684 37.4112C117.31 37.4112 118.521 38.0328 119.596 39.0293L122.401 35.8705C120.879 34.3661 118.538 33 115.684 33C112.92 33 110.432 33.914 108.546 35.6215V33.4076H94.6461V37.6873H103.44V44.4952C103.44 47.5861 102.263 48.5885 99.9723 48.5885C98.4844 48.5885 96.962 47.7186 95.6737 46.1089L92.7461 49.2749C94.7092 52.0211 97.6439 53 100.141 53C104.007 53 106.31 51.5884 107.501 49.4611C109.44 51.801 112.282 53 115.358 53C118.389 53 120.908 51.8625 122.746 49.6852L119.94 46.5953Z" fill="white"/>
<g clip-path="url(#clip0_274_683)">
<path d="M140.746 49.3806L143.127 46.7838C144.172 48.1062 145.407 48.8209 146.616 48.8221C148.476 48.8221 149.434 48.0011 149.435 45.4619L149.442 37.0812L142.3 37.074L142.302 33.5557L153.59 33.5645L153.581 45.8072C153.578 49.441 151.81 52.447 146.751 52.4442C144.722 52.443 142.339 51.6382 140.746 49.3806Z" fill="white"/>
<path d="M156.59 43.0944C156.595 36.9495 160.434 33.3861 165.333 33.3901C167.651 33.3901 169.552 34.5145 170.788 35.7519L168.507 38.3455C167.635 37.5254 166.651 37.0139 165.33 37.0127C162.734 37.0127 160.836 39.2469 160.834 42.9596C160.831 46.7696 162.725 48.9821 165.484 48.9861C166.802 48.9861 167.891 48.331 168.779 47.3523L171.056 49.8915C169.563 51.6799 167.516 52.6119 165.054 52.6099C160.508 52.6042 156.585 49.3483 156.59 43.0944Z" fill="white"/>
<path d="M188.496 52.2742L184.366 44.8544C186.319 43.9607 187.626 42.2343 187.628 39.5112C187.632 35.1015 184.445 33.7341 180.571 33.7309L174.07 33.7261L174.056 52.2617L178.203 52.2649L178.208 45.5973H180.382L183.866 52.2673L188.496 52.2742ZM178.214 37.0589H180.231C182.406 37.0589 183.572 37.6766 183.571 39.5064C183.571 41.3208 182.402 42.2681 180.227 42.2665H178.21L178.214 37.0589Z" fill="white"/>
<path d="M191.511 33.7273L203.633 33.7366L203.63 37.2537L195.648 37.2476L195.645 40.9651L202.427 40.9704L202.424 44.4875L195.642 44.4822L195.639 48.7478L203.902 48.7543L203.9 52.2726L191.496 52.2629L191.511 33.7273Z" fill="white"/>
<path d="M218.866 52.2683L223.254 52.2719L217.573 33.7319L212.612 33.7283L206.902 52.2595L211.139 52.2627L212.258 47.855L217.762 47.8591L218.866 52.2683ZM213.088 44.587L213.524 42.88C213.988 41.0289 214.498 38.8591 214.948 36.9033H215.06C215.499 38.8599 216.053 41.0317 216.515 42.8824L216.943 44.5902L213.088 44.587Z" fill="white"/>
</g>
<defs>
<clipPath id="clip0_274_683">
<rect width="82.5084" height="19.2197" fill="white" transform="translate(140.746 33.3901)"/>
</clipPath>
</defs>
</svg>
