<svg width="367" height="82" viewBox="0 0 367 82" fill="none" xmlns="http://www.w3.org/2000/svg">
<g filter="url(#filter0_b_274_688)">
<rect width="367" height="82" rx="41" fill="white" fill-opacity="0.1"/>
<rect x="1" y="1" width="365" height="80" rx="40" stroke="url(#paint0_radial_274_688)" stroke-width="2"/>
<rect x="10.25" y="10.25" width="207.5" height="61.5" rx="30.75" fill="#FD853A"/>
<rect x="10.25" y="10.25" width="207.5" height="61.5" rx="30.75" stroke="#D0D5DD" stroke-width="0.5"/>
<path d="M51.4587 31.2743C52.5627 31.2743 53.5663 31.5252 54.4695 32.027C55.3811 32.5204 56.0961 33.2104 56.6146 34.0968C57.1331 34.9833 57.3924 35.9702 57.3924 37.0574C57.3924 38.6966 56.8237 40.064 55.6863 41.1595C54.5489 42.2551 53.1397 42.8029 51.4587 42.8029H46.9803V49H43.9319V31.2743H51.4587ZM51.4086 39.9302C52.2198 39.9302 52.8972 39.6584 53.4408 39.1147C53.9844 38.5628 54.2562 37.877 54.2562 37.0574C54.2562 36.2211 53.9844 35.5269 53.4408 34.975C52.8972 34.423 52.2198 34.147 51.4086 34.147H46.9803V39.9302H51.4086ZM65.0357 49.3136C63.0369 49.3136 61.3684 48.6571 60.0303 47.3441C58.6922 46.0311 58.0231 44.4003 58.0231 42.4516C58.0231 40.503 58.6922 38.8722 60.0303 37.5592C61.3684 36.2462 63.0369 35.5897 65.0357 35.5897C66.3403 35.5897 67.5279 35.8907 68.5984 36.4929C69.6772 37.0867 70.5219 37.9104 71.1324 38.9642C71.7429 40.0096 72.0482 41.1721 72.0482 42.4516C72.0482 43.7312 71.7429 44.8979 71.1324 45.9516C70.5219 46.997 69.6772 47.8208 68.5984 48.4229C67.5279 49.0167 66.3403 49.3136 65.0357 49.3136ZM62.1378 45.362C62.9156 46.1398 63.8815 46.5287 65.0357 46.5287C66.1898 46.5287 67.1474 46.1398 67.9084 45.362C68.6778 44.5759 69.0625 43.6058 69.0625 42.4516C69.0625 41.2892 68.6778 40.319 67.9084 39.5413C67.1474 38.7551 66.1898 38.3621 65.0357 38.3621C63.8815 38.3621 62.9156 38.7551 62.1378 39.5413C61.36 40.3274 60.9712 41.2975 60.9712 42.4516C60.9712 43.6058 61.36 44.5759 62.1378 45.362ZM81.2219 35.69H81.7111V38.6506H81.2219C79.9507 38.6506 78.9513 39.0102 78.2237 39.7294C77.5045 40.4403 77.1448 41.4063 77.1448 42.6273V49H74.2596V35.9033H77.1448V37.8226C78.1902 36.4009 79.5493 35.69 81.2219 35.69ZM91.5497 38.5126H87.849V44.7097C87.849 45.3118 88.0121 45.7676 88.3383 46.0771C88.6728 46.3781 89.1453 46.5287 89.7558 46.5287C90.3329 46.5287 90.9308 46.3781 91.5497 46.0771V48.7742C90.8388 49.1338 90.0402 49.3136 89.1537 49.3136C87.7737 49.3136 86.7325 48.9498 86.03 48.2222C85.3275 47.4946 84.9763 46.4785 84.9763 45.1739V38.5126H82.7559V35.9033H84.9763V32.5037H87.849V35.9033H91.5497V38.5126ZM99.6822 32.8424C98.3943 32.8424 97.7503 33.4403 97.7503 34.6363V35.9033H101.238V38.5126H97.7503V49H94.8776V38.5126H92.6572V35.9033H94.8776V34.4606C94.8776 33.1142 95.2288 32.0688 95.9313 31.3245C96.6338 30.5718 97.6751 30.1954 99.055 30.1954C99.9248 30.1954 100.715 30.3752 101.426 30.7349V33.2814C100.907 32.9887 100.326 32.8424 99.6822 32.8424ZM108.68 49.3136C106.682 49.3136 105.013 48.6571 103.675 47.3441C102.337 46.0311 101.668 44.4003 101.668 42.4516C101.668 40.503 102.337 38.8722 103.675 37.5592C105.013 36.2462 106.682 35.5897 108.68 35.5897C109.985 35.5897 111.173 35.8907 112.243 36.4929C113.322 37.0867 114.167 37.9104 114.777 38.9642C115.388 40.0096 115.693 41.1721 115.693 42.4516C115.693 43.7312 115.388 44.8979 114.777 45.9516C114.167 46.997 113.322 47.8208 112.243 48.4229C111.173 49.0167 109.985 49.3136 108.68 49.3136ZM105.782 45.362C106.56 46.1398 107.526 46.5287 108.68 46.5287C109.834 46.5287 110.792 46.1398 111.553 45.362C112.322 44.5759 112.707 43.6058 112.707 42.4516C112.707 41.2892 112.322 40.319 111.553 39.5413C110.792 38.7551 109.834 38.3621 108.68 38.3621C107.526 38.3621 106.56 38.7551 105.782 39.5413C105.005 40.3274 104.616 41.2975 104.616 42.4516C104.616 43.6058 105.005 44.5759 105.782 45.362ZM117.904 49V30.4965H120.79V49H117.904ZM125.259 33.6829C124.74 33.6829 124.306 33.5072 123.954 33.156C123.603 32.8047 123.427 32.374 123.427 31.8639C123.427 31.337 123.603 30.9021 123.954 30.5592C124.306 30.2163 124.74 30.0449 125.259 30.0449C125.786 30.0449 126.225 30.2163 126.576 30.5592C126.927 30.9021 127.103 31.337 127.103 31.8639C127.103 32.3824 126.927 32.8173 126.576 33.1685C126.225 33.5114 125.786 33.6829 125.259 33.6829ZM123.816 49V35.9033H126.702V49H123.816ZM135.951 49.3136C133.952 49.3136 132.283 48.6571 130.945 47.3441C129.607 46.0311 128.938 44.4003 128.938 42.4516C128.938 40.503 129.607 38.8722 130.945 37.5592C132.283 36.2462 133.952 35.5897 135.951 35.5897C137.255 35.5897 138.443 35.8907 139.513 36.4929C140.592 37.0867 141.437 37.9104 142.047 38.9642C142.658 40.0096 142.963 41.1721 142.963 42.4516C142.963 43.7312 142.658 44.8979 142.047 45.9516C141.437 46.997 140.592 47.8208 139.513 48.4229C138.443 49.0167 137.255 49.3136 135.951 49.3136ZM133.053 45.362C133.831 46.1398 134.796 46.5287 135.951 46.5287C137.105 46.5287 138.062 46.1398 138.823 45.362C139.593 44.5759 139.977 43.6058 139.977 42.4516C139.977 41.2892 139.593 40.319 138.823 39.5413C138.062 38.7551 137.105 38.3621 135.951 38.3621C134.796 38.3621 133.831 38.7551 133.053 39.5413C132.275 40.3274 131.886 41.2975 131.886 42.4516C131.886 43.6058 132.275 44.5759 133.053 45.362Z" fill="white"/>
<path d="M156.25 49.75L173.75 32.25" stroke="white" stroke-width="2" stroke-linecap="round" stroke-linejoin="round"/>
<path d="M156.25 32.25H173.75V49.75" stroke="white" stroke-width="2" stroke-linecap="round" stroke-linejoin="round"/>
<path d="M260.529 31.2743H262.122V49H260.529V40.8334H249.351V49H247.783V31.2743H249.351V39.3406H260.529V31.2743ZM266.804 32.8173C266.503 32.8173 266.248 32.7127 266.039 32.5037C265.83 32.2946 265.726 32.0395 265.726 31.7384C265.726 31.4457 265.83 31.199 266.039 30.9983C266.257 30.7892 266.512 30.6847 266.804 30.6847C267.114 30.6847 267.373 30.7892 267.582 30.9983C267.8 31.199 267.908 31.4457 267.908 31.7384C267.908 32.0479 267.8 32.3071 267.582 32.5162C267.373 32.7169 267.114 32.8173 266.804 32.8173ZM266.064 49V35.9033H267.557V49H266.064ZM277.672 35.69H278.061V37.233H277.672C276.166 37.233 274.966 37.6846 274.071 38.5879C273.185 39.4911 272.742 40.7079 272.742 42.2384V49H271.249V35.9033H272.742V38.6506C273.227 37.7139 273.892 36.9863 274.736 36.4678C275.589 35.9493 276.568 35.69 277.672 35.69ZM292.29 42.4516C292.29 42.6105 292.273 42.8238 292.24 43.0914H280.209C280.368 44.5132 280.962 45.6756 281.991 46.5789C283.028 47.4737 284.295 47.9212 285.792 47.9212C286.837 47.9212 287.795 47.6953 288.664 47.2437C289.534 46.7838 290.212 46.1774 290.697 45.4247L291.75 46.3029C291.115 47.2396 290.27 47.9755 289.216 48.5108C288.163 49.046 287 49.3136 285.729 49.3136C283.705 49.3136 282.016 48.6571 280.661 47.3441C279.314 46.0227 278.641 44.3835 278.641 42.4266C278.641 40.4779 279.294 38.8513 280.598 37.5467C281.903 36.242 283.529 35.5897 285.478 35.5897C287.418 35.5897 289.037 36.2462 290.333 37.5592C291.638 38.8639 292.29 40.4947 292.29 42.4516ZM289.016 38.3119C288.037 37.4254 286.85 36.9821 285.453 36.9821C284.056 36.9821 282.873 37.4254 281.903 38.3119C280.933 39.1984 280.368 40.3441 280.209 41.7491H290.722C290.563 40.3441 289.994 39.1984 289.016 38.3119ZM316.897 35.5897C318.411 35.5897 319.624 36.0455 320.535 36.957C321.447 37.8603 321.902 39.0646 321.902 40.5699V49H320.41V40.9839C320.41 39.788 320.05 38.8304 319.331 38.1112C318.62 37.3919 317.671 37.0323 316.483 37.0323C315.245 37.0323 314.25 37.4003 313.498 38.1363C312.745 38.8639 312.368 39.8298 312.368 41.0341V49H310.888V40.9839C310.888 39.7963 310.524 38.8429 309.797 38.1237C309.078 37.3961 308.128 37.0323 306.949 37.0323C305.711 37.0323 304.712 37.4003 303.951 38.1363C303.198 38.8639 302.822 39.8298 302.822 41.0341V49H301.329V35.9033H302.822V38.061C303.29 37.2665 303.913 36.656 304.691 36.2295C305.469 35.8029 306.368 35.5897 307.388 35.5897C308.484 35.5897 309.433 35.8447 310.236 36.3549C311.047 36.8567 311.633 37.5592 311.992 38.4624C312.435 37.5508 313.079 36.8441 313.924 36.3424C314.769 35.8406 315.76 35.5897 316.897 35.5897ZM338.227 42.4516C338.227 42.6105 338.21 42.8238 338.177 43.0914H326.146C326.305 44.5132 326.899 45.6756 327.927 46.5789C328.965 47.4737 330.232 47.9212 331.729 47.9212C332.774 47.9212 333.732 47.6953 334.601 47.2437C335.471 46.7838 336.148 46.1774 336.634 45.4247L337.687 46.3029C337.052 47.2396 336.207 47.9755 335.153 48.5108C334.099 49.046 332.937 49.3136 331.666 49.3136C329.642 49.3136 327.953 48.6571 326.598 47.3441C325.251 46.0227 324.578 44.3835 324.578 42.4266C324.578 40.4779 325.23 38.8513 326.535 37.5467C327.84 36.242 329.466 35.5897 331.415 35.5897C333.355 35.5897 334.973 36.2462 336.27 37.5592C337.574 38.8639 338.227 40.4947 338.227 42.4516ZM334.953 38.3119C333.974 37.4254 332.786 36.9821 331.39 36.9821C329.993 36.9821 328.81 37.4254 327.84 38.3119C326.87 39.1984 326.305 40.3441 326.146 41.7491H336.659C336.5 40.3441 335.931 39.1984 334.953 38.3119Z" fill="white"/>
</g>
<defs>
<filter id="filter0_b_274_688" x="-15" y="-15" width="397" height="112" filterUnits="userSpaceOnUse" color-interpolation-filters="sRGB">
<feFlood flood-opacity="0" result="BackgroundImageFix"/>
<feGaussianBlur in="BackgroundImageFix" stdDeviation="7.5"/>
<feComposite in2="SourceAlpha" operator="in" result="effect1_backgroundBlur_274_688"/>
<feBlend mode="normal" in="SourceGraphic" in2="effect1_backgroundBlur_274_688" result="shape"/>
</filter>
<radialGradient id="paint0_radial_274_688" cx="0" cy="0" r="1" gradientUnits="userSpaceOnUse" gradientTransform="translate(32.1235 82) rotate(3.16869) scale(552.665 186.623)">
<stop stop-color="white"/>
<stop offset="1" stop-color="#C9C9C9" stop-opacity="0"/>
</radialGradient>
</defs>
</svg>
