<svg width="140" height="66" viewBox="0 0 140 66" fill="none" xmlns="http://www.w3.org/2000/svg">
<path d="M51.9834 39L50.6455 35.6602H43.8877L42.5498 39H40.5869L46.2021 25.2012H48.3896L54.0049 39H51.9834ZM44.5713 33.9609H49.9717L47.2666 27.1836L44.5713 33.9609ZM61.2635 28.5605C62.7218 28.5605 63.9393 29.0716 64.9158 30.0938C65.8924 31.1159 66.3807 32.3854 66.3807 33.9023C66.3807 35.4193 65.8924 36.6888 64.9158 37.7109C63.9393 38.7331 62.7218 39.2441 61.2635 39.2441C60.4301 39.2441 59.6717 39.0618 58.9881 38.6973C58.3045 38.3262 57.7446 37.8151 57.3084 37.1641V39H55.5896V24.5957H57.3084V30.6406C57.7446 29.9896 58.3045 29.4818 58.9881 29.1172C59.6717 28.7461 60.4301 28.5605 61.2635 28.5605ZM60.9412 37.584C61.9894 37.584 62.8618 37.2324 63.5584 36.5293C64.255 35.8262 64.6033 34.9505 64.6033 33.9023C64.6033 32.8542 64.255 31.9785 63.5584 31.2754C62.8618 30.5723 61.9894 30.2207 60.9412 30.2207C59.8995 30.2207 59.0337 30.5723 58.3436 31.2754C57.6535 31.9785 57.3084 32.8542 57.3084 33.9023C57.3084 34.9505 57.6535 35.8262 58.3436 36.5293C59.0337 37.2324 59.8995 37.584 60.9412 37.584ZM73.151 39.2441C72.1354 39.2441 71.2109 39.013 70.3775 38.5508C69.5442 38.082 68.8899 37.4408 68.4146 36.627C67.9459 35.8066 67.7115 34.8984 67.7115 33.9023C67.7115 32.9062 67.9459 32.0013 68.4146 31.1875C68.8899 30.3672 69.5442 29.7259 70.3775 29.2637C71.2109 28.7949 72.1354 28.5605 73.151 28.5605C74.6874 28.5605 75.9732 29.0716 77.0084 30.0938C78.0501 31.1159 78.5709 32.3854 78.5709 33.9023C78.5709 35.4193 78.0501 36.6888 77.0084 37.7109C75.9732 38.7331 74.6874 39.2441 73.151 39.2441ZM73.151 37.584C74.1926 37.584 75.0585 37.2324 75.7486 36.5293C76.4452 35.8262 76.7936 34.9505 76.7936 33.9023C76.7936 32.8542 76.4452 31.9785 75.7486 31.2754C75.0585 30.5723 74.1926 30.2207 73.151 30.2207C72.1028 30.2207 71.2304 30.5723 70.5338 31.2754C69.8372 31.9785 69.4889 32.8542 69.4889 33.9023C69.4889 34.9505 69.8372 35.8262 70.5338 36.5293C71.2304 37.2324 72.1028 37.584 73.151 37.584ZM88.3393 38.0723C87.4994 38.8535 86.3829 39.2441 84.9896 39.2441C83.5964 39.2441 82.4766 38.8535 81.6303 38.0723C80.7904 37.2845 80.3705 36.2461 80.3705 34.957V28.8047H82.0893V34.7227C82.0893 35.582 82.3529 36.2754 82.8803 36.8027C83.4141 37.3236 84.1173 37.584 84.9896 37.584C85.862 37.584 86.5619 37.3236 87.0893 36.8027C87.6231 36.2754 87.89 35.582 87.89 34.7227V28.8047H89.6088V34.957C89.6088 36.2461 89.1856 37.2845 88.3393 38.0723ZM97.8537 30.3574H94.7873V36.002C94.7873 37.0566 95.3342 37.584 96.4279 37.584C96.9032 37.584 97.3784 37.457 97.8537 37.2031V38.8242C97.3394 39.1042 96.7437 39.2441 96.0666 39.2441C95.0835 39.2441 94.3381 38.987 93.8303 38.4727C93.3225 37.9583 93.0686 37.2259 93.0686 36.2754V30.3574H91.2326V28.8047H93.0686V26.0605H94.7873V28.8047H97.8537V30.3574Z" fill="white"/>
</svg>
