<svg width="157" height="66" viewBox="0 0 157 66" fill="none" xmlns="http://www.w3.org/2000/svg">
<path d="M50.2666 39L46.1455 33.5215H44.124V39H42.2881V25.2012H47.8838C49.1077 25.2012 50.1299 25.6016 50.9502 26.4023C51.777 27.2031 52.1904 28.2025 52.1904 29.4004C52.1904 30.5137 51.8193 31.4577 51.0771 32.2324C50.3415 33.0007 49.4105 33.4238 48.2842 33.502L52.4834 39H50.2666ZM44.124 26.9199V31.9199H47.8447C48.5479 31.9199 49.1338 31.6823 49.6025 31.207C50.0713 30.7318 50.3057 30.1361 50.3057 29.4199C50.3057 28.7038 50.0713 28.1081 49.6025 27.6328C49.1338 27.1576 48.5479 26.9199 47.8447 26.9199H44.124ZM63.9998 33.9023C63.9998 34 63.9835 34.2539 63.951 34.6641H55.1717C55.3475 35.5625 55.7739 36.2884 56.451 36.8418C57.1346 37.3887 57.9679 37.6621 58.951 37.6621C59.6801 37.6621 60.3507 37.5091 60.9627 37.2031C61.5747 36.8906 62.0532 36.4902 62.3982 36.002L63.5799 37.0176C63.0656 37.7077 62.3982 38.2513 61.5779 38.6484C60.7641 39.0456 59.8689 39.2441 58.8924 39.2441C57.2973 39.2441 55.9692 38.7298 54.908 37.7012C53.8468 36.6725 53.3162 35.3932 53.3162 33.8633C53.3162 32.8737 53.5473 31.9753 54.0096 31.168C54.4783 30.3542 55.1229 29.7161 55.9432 29.2539C56.7635 28.7917 57.6749 28.5605 58.6775 28.5605C59.6736 28.5605 60.5786 28.7917 61.3924 29.2539C62.2062 29.7161 62.8442 30.3574 63.3064 31.1777C63.7687 31.9915 63.9998 32.8997 63.9998 33.9023ZM58.658 30.1426C57.7726 30.1426 57.0076 30.4193 56.3631 30.9727C55.7186 31.5195 55.3149 32.2292 55.1521 33.1016H62.1736C62.0109 32.2161 61.6072 31.5033 60.9627 30.9629C60.3182 30.416 59.5499 30.1426 58.658 30.1426ZM69.2467 39.2441C67.5995 39.2441 66.2193 38.7103 65.1061 37.6426L66.0631 36.4023C66.8964 37.2552 67.9479 37.6816 69.2174 37.6816C69.9075 37.6816 70.4739 37.5547 70.9166 37.3008C71.3593 37.0404 71.5807 36.6855 71.5807 36.2363C71.5807 36.0475 71.5318 35.8783 71.4342 35.7285C71.343 35.5723 71.2324 35.4453 71.1021 35.3477C70.9785 35.25 70.7896 35.1556 70.5357 35.0645C70.2883 34.9668 70.0702 34.8952 69.8814 34.8496C69.6992 34.7975 69.4387 34.7292 69.1002 34.6445C68.7877 34.5664 68.5403 34.5046 68.358 34.459C68.1757 34.4069 67.9381 34.3288 67.6451 34.2246C67.3587 34.1204 67.1243 34.0195 66.942 33.9219C66.7662 33.8242 66.5709 33.6973 66.3561 33.541C66.1477 33.3783 65.9817 33.209 65.858 33.0332C65.7408 32.8509 65.6399 32.6361 65.5553 32.3887C65.4771 32.1348 65.4381 31.8581 65.4381 31.5586C65.4381 30.9206 65.6204 30.3704 65.985 29.9082C66.3495 29.446 66.8215 29.1074 67.401 28.8926C67.9804 28.6712 68.6282 28.5605 69.3443 28.5605C70.8157 28.5605 72.0624 29.026 73.0846 29.957L72.1178 31.2168C71.3691 30.4876 70.4511 30.123 69.3639 30.123C68.7454 30.123 68.2311 30.2402 67.8209 30.4746C67.4107 30.709 67.2057 31.0378 67.2057 31.4609C67.2057 31.6562 67.2545 31.832 67.3521 31.9883C67.4498 32.138 67.5605 32.2617 67.6842 32.3594C67.8144 32.457 68.0097 32.5547 68.2701 32.6523C68.5305 32.7435 68.7486 32.8151 68.9244 32.8672C69.1067 32.9128 69.3736 32.9779 69.7252 33.0625C70.0312 33.1341 70.2753 33.196 70.4576 33.248C70.6464 33.2936 70.884 33.3652 71.1705 33.4629C71.457 33.5605 71.6881 33.6582 71.8639 33.7559C72.0462 33.847 72.2415 33.9707 72.4498 34.127C72.6581 34.2832 72.8209 34.4492 72.9381 34.625C73.0553 34.8008 73.1529 35.0156 73.2311 35.2695C73.3157 35.5169 73.358 35.7871 73.358 36.0801C73.358 37.0632 72.9706 37.8379 72.1959 38.4043C71.4212 38.9642 70.4381 39.2441 69.2467 39.2441ZM83.0385 38.0723C82.1986 38.8535 81.0821 39.2441 79.6889 39.2441C78.2956 39.2441 77.1758 38.8535 76.3295 38.0723C75.4896 37.2845 75.0697 36.2461 75.0697 34.957V28.8047H76.7885V34.7227C76.7885 35.582 77.0521 36.2754 77.5795 36.8027C78.1133 37.3236 78.8165 37.584 79.6889 37.584C80.5613 37.584 81.2611 37.3236 81.7885 36.8027C82.3223 36.2754 82.5893 35.582 82.5893 34.7227V28.8047H84.308V34.957C84.308 36.2461 83.8848 37.2845 83.0385 38.0723ZM98.9494 28.5605C100.121 28.5605 101.056 28.9121 101.752 29.6152C102.455 30.3118 102.807 31.2461 102.807 32.418V39H101.088V32.8965C101.088 32.0827 100.844 31.4349 100.356 30.9531C99.8739 30.4648 99.2294 30.2207 98.4221 30.2207C97.5887 30.2207 96.9182 30.4681 96.4104 30.9629C95.9025 31.4577 95.6486 32.1152 95.6486 32.9355V39H93.9299V32.8965C93.9299 32.0827 93.6857 31.4349 93.1975 30.9531C92.7157 30.4648 92.0712 30.2207 91.2639 30.2207C90.4305 30.2207 89.76 30.4681 89.2521 30.9629C88.7443 31.4577 88.4904 32.1152 88.4904 32.9355V39H86.7717V28.8047H88.4904V30.1816C89.2652 29.1009 90.3784 28.5605 91.8303 28.5605C92.6245 28.5605 93.3179 28.7363 93.9104 29.0879C94.5028 29.4395 94.9488 29.931 95.2482 30.5625C95.6324 29.918 96.1402 29.4232 96.7717 29.0781C97.4097 28.7331 98.1356 28.5605 98.9494 28.5605ZM115.3 33.9023C115.3 34 115.284 34.2539 115.251 34.6641H106.472C106.647 35.5625 107.074 36.2884 107.751 36.8418C108.435 37.3887 109.268 37.6621 110.251 37.6621C110.98 37.6621 111.651 37.5091 112.263 37.2031C112.875 36.8906 113.353 36.4902 113.698 36.002L114.88 37.0176C114.366 37.7077 113.698 38.2513 112.878 38.6484C112.064 39.0456 111.169 39.2441 110.192 39.2441C108.597 39.2441 107.269 38.7298 106.208 37.7012C105.147 36.6725 104.616 35.3932 104.616 33.8633C104.616 32.8737 104.847 31.9753 105.31 31.168C105.778 30.3542 106.423 29.7161 107.243 29.2539C108.063 28.7917 108.975 28.5605 109.978 28.5605C110.974 28.5605 111.879 28.7917 112.692 29.2539C113.506 29.7161 114.144 30.3574 114.606 31.1777C115.069 31.9915 115.3 32.8997 115.3 33.9023ZM109.958 30.1426C109.073 30.1426 108.308 30.4193 107.663 30.9727C107.019 31.5195 106.615 32.2292 106.452 33.1016H113.474C113.311 32.2161 112.907 31.5033 112.263 30.9629C111.618 30.416 110.85 30.1426 109.958 30.1426Z" fill="white"/>
</svg>
